/* XPM */
static char * wmc2d_xpm[] = {
"60 64 17 1",
" 	c None",
".	c #000000",
"+	c #007D71",
"@	c #25D1C7",
"#	c #202020",
"$	c #004941",
"%	c #C7C7C7",
"&	c #FFFFFF",
"*	c #020202",
"=	c #7D1600",
"-	c #B63B20",
";	c #490D00",
">	c #188A86",
",	c #25CFC9",
"'	c #107D79",
")	c #007E73",
"!	c #20B6AE",
"..........................   +@@@+#+@@@+#+$$$+##### ####### ",
".########################%   @###$#@###@#@###@##### ##&&&## ",
".########################%   @###$#@###@#@###@##$$+ #&###&# ",
".########################%   +$$$##+@@@+#+$$$+#$##@ &##&##& ",
".########################%   @###$#@###$#@###@##$$@ &#&#&#& ",
".########################%   @###$#@###$#@###@#$##@ &#####& ",
".########################%   +@@@+#+$$$##+@@@+##$$+ #&###&# ",
".########################%   +@@@+#+@@@+#+$$$+##### ##&&&## ",
".########################%   @###$#@###@#@###@##### &###### ",
".########################%   @###$#@###@#@###@#+@@+ &###### ",
".%%%%%%%%%%%%%%%%%%%%%%%%%   +$$$##+@@@+#+$$$+#$##@ #&&&&&& ",
"...........................  @###$#@###$#@###@#+@@+ ####### ",
".#########################%  @###$#@###$#@###@#@##$ #&&&### ",
".#########################%  +@@@+#+$$$##+@@@+#+@@+ &###&## ",
".#########################%  +@@@+##$$$##@$$$@##### &###&## ",
".#########################%  @###$#$###$#@@#@@##### #&&&### ",
".#########################%  @###$#$###$#@#@#@##$$# ####### ",
".#########################%  +$$$###$$$##+$$$+#$##$ &&&&&&& ",
".#########################%  @###$#$###$#@###@##$$# ####&## ",
".#########################%  @###$#@###$#@###@#@##$ &&&&### ",
".#########################%  +@@@+#+@$$##+$$$+#+@$# ####### ",
"*%%%%%%%%%%%%%%%%%%%%%%%%%%  =---=#=---=#=;;;=##### &&&&&## ",
"............................*-###;#-###-#-###-##### ###&### ",
".###########################%-###;#-###-#-###-##;;= &&&&&## ",
".##$$$###$$$####$$$##>,#+@+#%=;;;##=---=#=;;;=#;##- ####### ",
".#$###$#$###$##$###$#',#@#$#%-###;#-###;#-###-##;;- &#&&&## ",
".#$###$#$###$##$###$####@#$#%-###;#-###;#-###-#;##- &#&#&## ",
".##$$$###$$$####$$$#####+@+#%=---=#=;;;##=---=##;;= &&&#&## ",
".#$###$#$###$##$###$########%=---=#=---=#=;;;=#####         ",
".#$###$#$###$##$###$########%-###;#-###-#-###-#####         ",
".##$$$###$$$##,#$$$#########%-###;#-###-#-###-#=--=         ",
".############>,#############%=;;;##=---=#=;;;=#;##-         ",
".%%%%%%%%%%%%%%%%%%%%%%%%%%%%-###;#-###;#-###-#=--=         ",
"                             -###;#-###;#-###-#-##;         ",
"                             =---=#=;;;##=---=#=--=         ",
"                                                            ",
"#---#####-##----##-----#-###-#-----##----#-----#-----#-----#",
"-###-####-######-#####-#-###-#-#####-#########-#-###-#-###-#",
"-##--####-######-#####-#-###-#-#####-########-##-###-#-###-#",
"-#-#-####-##-----##----#-----#-----#-----###-####---##-----#",
"--##-####-##-#########-#####-#####-#-###-###-###-###-#####-#",
"-###-####-##-#########-#####-#####-#-###-###-###-###-#####-#",
"#---#####-##-----#-----#####-#-----#-----###-###-----#----##",
"=---=#;;;==---==---==;;;==---==---==---==---==---=          ",
"-###-;###-;###-;###--###--###;-###;;###--###--###-          ",
"-###-;###-;###-;###--###--###;-###;;###--###--###-          ",
"=;;;=#;;;==---=#---==---=----==---=#;;;==---==---=    -     ",
"-###-;###--###;;###-;###-;###--###-;###--###-;###-          ",
"-###-;###--###;;###-;###-;###--###-;###--###-;###-          ",
"=---=#;;;==---==---=#;;;==---==---=#;;;==---==---=          ",
"#@@@#####@##@@@@##@@@@@#@###@#@@@@@##@@@@#@@@@@#@@@@@#@@@@@#",
"@###@####@######@#####@#@###@#@#####@#########@#@###@#@###@#",
"@##@@####@######@#####@#@###@#@#####@########@##@###@#@###@#",
"@#@#@####@##@@@@@##@@@@#@@@@@#@@@@@#@@@@@###@####@@@##@@@@@#",
"@@##@####@##@#########@#####@#####@#@###@###@###@###@#####@#",
"@###@####@##@#########@#####@#####@#@###@###@###@###@#####@#",
"#@@@#####@##@@@@@#@@@@@#####@#@@@@@#@@@@@###@###@@@@@#@@@@##",
"),,,)#$$$++,,,++,,,++$$$++,,,++,,,++,,,++,,,++,,,+          ",
",###,$###,$###,$###,,###,,###$,###$$###,,###,,###,          ",
",###,$###,$###,$###,,###,,###$,###$$###,,###,,###,          ",
"+$$$+#$$$++,,,+#,,,++,,,+,,,,++,,,+#$$$++,,,++,,,+    !     ",
",###,$###,,###$$###,$###,$###,,###,$###,,###,$###,          ",
",###,$###,,###$$###,$###,$###,,###,$###,,###,$###,          ",
"+,,,+#$$$++,,,++,,,+#$$$++,,,++,,,+#$$$++,,,++,,,+          "};
