/* XPM */
static char * wmc2d_xpm[] = {
"157 84 49 1",
" 	c None",
".	c #C13800",
"+	c #202020",
"@	c #20B6AE",
"#	c #FE01FE",
"$	c #B34900",
"%	c #9B5D00",
"&	c #916A00",
"*	c #000000",
"=	c #020202",
"-	c #7F7C00",
";	c #C7C7C7",
">	c #669100",
",	c #007D71",
"'	c #004941",
")	c #188A86",
"!	c #20B2AE",
"~	c #5C9E00",
"{	c #107D79",
"]	c #46AE00",
"^	c #35C200",
"/	c #25D000",
"(	c #C73000",
"_	c #BE3C00",
":	c #B64500",
"<	c #AE5100",
"[	c #9E5900",
"}	c #966500",
"|	c #8E6D00",
"1	c #867900",
"2	c #718200",
"3	c #698E00",
"4	c #619600",
"5	c #59A200",
"6	c #49AA00",
"7	c #41B600",
"8	c #38BE00",
"9	c #30CB00",
"0	c #20D300",
"a	c #73796F",
"b	c #E90000",
"c	c #18FF00",
"d	c #0026E9",
"e	c #FE0202",
"f	c #24CC08",
"g	c #7D1600",
"h	c #B63B20",
"i	c #490D00",
"j	c #FFFFFF",
"                                                                .+@++@@+++@@++#+++@+@++++@+++@+@+++++++++++++++++++++++++++++++             +################",
"                                                                $+@+@++@+@++@+#++@@+@@+++@@+@@+@+++++++++++++++++++++++++++++++             +#++++++++++++++#",
"                                                                %+@+@++@+@++@+#+@@@+@@@++@+@+@+@+++++++++++++++++++++++++++++++             +#+++++++@@@@@++#",
"                                                                &+@+@++@+@++@+#@@@@+@@@@+@+++@+@@@@+@@@@+++++++++++++++++++++++             +#++++++@++++@@@#",
"    ************************** ****************************=    -+@+@++@+@++@+#+@@@+@@@++@+++@+@++@+++@++++++++++++++++++++++++             +#++++++@++++@++#",
"    *++++++++++++++++++++++++; *+++++++++++++++++++++++++++;    >+@+@++@+@++@+#++@@+@@+++@+++@+@++@++@+++++++++++++++++++++++++             +#++++@@@++++@++#",
"    *+,@@@,+,@@@,+,''',++++++; *++'''+++'''++++'''++)!+,@,+;    ~+@++@@+++@@++#+++@+@++++@+++@+@++@+@@@@+++++++++++++++++++++++             +#+++@++@++++@@@#",
"    *+@+++'+@+++@+@+++@++++++; *+'+++'+'+++'++'+++'+{!+@+'+;    ]+++++++++++++#++++++++++++++++++++++++++++++++++++++++++++++++             +#++@++++@@@@@++#",
"    *+@+++'+@+++@+@+++@++'',+; *+'+++'+'+++'++'+++'++++@+'+;    ^##############++++++++++++++++++++++++++++++++++++++++++++++++             +#++@+++++++++++#",
"    *+,'''++,@@@,+,''',+'++@+; *++'''+++'''++++'''+++++,@,+;    /#++++++++++++#++++++++++++++++++++++++++++++++++++++++++++++++             +#++++++++++++++#",
"    *+@+++'+@+++'+@+++@++''@+; *+'+++'+'+++'++'+++'++++++++;    ###############################++++++++++++++++++++++++++++++++             +################",
"    *+@+++'+@+++'+@+++@+'++@+; *+'+++'+'+++'++'+++'++++++++;    (__::<[[}}||112334455667889900#++++++++++++++++++++++++++++++++             +################",
"    *+,@@@,+,'''++,@@@,++'',+; *++'''+++'''++!+'''+++++++++;    (__::<[[}}||112334455667889900#++++++++++++++++++++++++++++++++             +#++++++++++++++#",
"    *++++++++++++++++++++++++; *++++++++++++)!+++++++++++++;    aaaaaaaaaaaaaaaaaaaaaaaaaaaaaa#++++++++++++++++++++++++++++++++             +#+bbbbbbbbbbb++#",
"    *++++++++++++++++++++++++; *+++++++++++++++++++++++++++;    aaaaaaaaaaaaaaaaaaaaaaaaaaaaaa#++++++++++++++++++++++++++++++++             +#+b+++++++++b++#",
"    *;;;;;;;;;;;;;;;;;;;;;;;;; *;;;;;;;;;;;;;;;;;;;;;;;;;;;;    ###############################++++++++++++++++++++++++++++++++             +#+b+++++++++bb+#",
"                                                                **ccc#c**cc#cc**c#ccc**#*ccc*#+++++++++++++++++++++++++++++++++             +#+b+++++++++bb+#",
"                                                                **ccc#c**cc#cc**c#ccc**#*ccc*#+++++++++++++++++++++++++++++++++             +#+b+++++++++bb+#",
"                                                                ccc**#cc**c#c**cc#**ccc#*ccc*#+++++++++++++++++++++++++++++++++             +#+b+++++++++b++#",
"    ************************** ****************************=    ccc**#cc**c#c**cc#**ccc#*ccc*#+++++++++++++++++++++++++++++++++             +#+bbbbbbbbbbb++#",
"    *++++++++++++++++++++++++; *+++++++++++++++++++++++++++;    bbbbb#bbbbb#bbbbb#bbbbb#bbbbb#+++++++++++++++++++++++++++++++++             +#++++++++++++++#",
"    *+,@@@,+,@@@,+,''',++++++; *++'''+++'''++++'''++)!+,@,+;    bbbbb#bbbbb#bbbbb#bbbbb#bbbbb#+++++++++++++++++++++++++++++++++             +################",
"    *+@+++'+@+++@+@+++@++++++; *+'+++'+'+++'++'+++'+{!+@+'+;    **ddd#d**dd#dd**d#ddd**#*ddd*#+++++++++++++++++++++++++++++++++             +################",
"    *+@+++'+@+++@+@+++@+,@@,+; *+'+++'+'+++'++'+++'++++@+'+;    **ddd#d**dd#dd**d#ddd**#*ddd*#+++++++++++++++++++++++++++++++++             +#++++++++++++++#",
"    *+,'''++,@@@,+,''',+'++@+; *++'''+++'''++++'''+++++,@,+;    ##############################+++++++++++++++++++++++++++++++++             +#+bbbbbbbbbbb++#",
"    *+@+++'+@+++'+@+++@+,@@,+; *+'+++'+'+++'++'+++'++++++++;    eeeeeeeeeeeeeeeeeeeeeeeeeeeeeeeeeeeeeeeeeeeee++++++++++++++++++             +#+b+++++++++b++#",
"    *+@+++'+@+++'+@+++@+@++'+; *+'+++'+'+++'++'+++'++++++++;    e********ee*****e*****e*****e*****ee********e++++++++++++++++++             +#+b+@@@@++++bb+#",
"    *+,@@@,+,'''++,@@@,+,@@,+; *++'''+++'''++!+'''+++++++++;    e********eeeeee*e*eeeee*eee*e*eee*ee********e++++++++++++++++++             +#+b+@@@@++++bb+#",
"    *++++++++++++++++++++++++; *++++++++++++)!+++++++++++++;    eeeeeeeeeeeeee*ee*eeeee*eee*e*eee*eeeeeeeeeee++++++++++++++++++             +#+b+@@@@++++bb+#",
"    *++++++++++++++++++++++++; *+++++++++++++++++++++++++++;    e********eeee*eee****ee****ee*eee*ee********e++++++++++++++++++             +#+b+++++++++b++#",
"    *;;;;;;;;;;;;;;;;;;;;;;;;; *;;;;;;;;;;;;;;;;;;;;;;;;;;;;    eeeeeeeeeeee*eeee*eeeee*eee*e*eee*eeeeeeeeeee++++++++++++++++++             +#+bbbbbbbbbbb++#",
"                                                                e********ee*eeeee*eeeee*eee*e*eee*ee********e++++++++++++++++++             +#++++++++++++++#",
"                                                                e********ee*****e*****e*eee*e*****ee********e++++++++++++++++++             +################",
"                                                                eeeeeeeeeeeeeeeeeeeeeeeeeeeeeeeeeeeeeeeeeeeee++++++++++++++++++             +################",
"    ************************** ****************************=    +!!!++'''))!!!))!!!)!'''!)!!!))!!!))!!!))!!!))!!!)+++++++++++++             +#++++++++++++++#",
"    *++++++++++++++++++++++++; *+++++++++++++++++++++++++++;    !+++!'+++!'+++!'+++!!+++!!+++'!+++''+++!!+++!!+++!+++++++++++++             +#+fffffffffff++#",
"    *+,@@@,++'''++@'''@++++++; *++'''+++'''++++'''++)!+,@,+;    !+++!'+++!'+++!'+++!!+++!!+++'!+++''+++!!+++!!+++!+++++++++++++             +#+f+++++++++f++#",
"    *+@+++'+'+++'+@@+@@++++++; *+'+++'+'+++'++'+++'+{!+@+'+;    )''')+'''))!!!)+!!!))!!!)!!!!))!!!)+'''))!!!){!!!)+++++++++++++             +#+f+@@@@@@@+ff+#",
"    *+@+++'+'+++'+@+@+@++''++; *+'+++'+'+++'++'+++'++++@+'+;    !+++!'+++!!+++''+++!'+++!'+++!!+++!'+++!!+++!'+++!+++++++++++++             +#+f+@@@@@@@+ff+#",
"    *+,'''+++'''++,''',+'++'+; *++'''+++'''++++'''+++++,@,+;    !+++!'+++!!+++''+++!'+++!'+++!!+++!'+++!!+++!'+++!+++++++++++++             +#+f+@@@@@@@+ff+#",
"    *+@+++'+'+++'+@+++@++''++; *+'+++'+'+++'++'+++'++++++++;    +!!!++'''!)!!!))!!!)+'''))!!!))!!!)+'''!)!!!))!!!)+++++++++++++             +#+f+++++++++f++#",
"    *+@+++'+@+++'+@+++@+@++'+; *+'+++'+'+++'++'+++'++++++++;    +++++++++++++++++++++++++++++++++++++++++++++++++++++++++++++++             +#+fffffffffff++#",
"    *+,@@@,+,@''++,''',+,@'++; *++'''+++'''++!+'''+++++++++;    ++@+++@++@@++@@++@+++@@@++@++@@@++@+++@++++++@+@++++@+@+@++++++             +#++++++++++++++#",
"    *++++++++++++++++++++++++; *++++++++++++)!+++++++++++++;    +@+@++@++++@+++@+@+@+@+++@+++++@+@+@+@+@++@++++@++++@@@+@++++++             +################",
"    *++++++++++++++++++++++++; *+++++++++++++++++++++++++++;    +@+@+@@+++@+++@++@@@+@@++@@+++@+++@+++@@++++++@+++++@+@+@@@+@@@             +################",
"    *;;;;;;;;;;;;;;;;;;;;;;;;; *;;;;;;;;;;;;;;;;;;;;;;;;;;;;    +@+@++@++@+++++@+++@+++@+@+@+@+++@+@+++@++@++@++++++@+@+@+@++@+++++++++++   +++++++++++++++++",
"                                                                ++@+++@++@@@+@@++++@+@@+++@++@++++@+++@++++++@+@++++@+@+@+@+@@@++++++++++   +                ",
"                                                                +++++++++++++++++++++++++++++++++++++++++++++++++++++++++++++++++@+@+++++                    ",
"    ***************************  ***************************    ghhhg+ghhhg+giiig+++++++++++++++++++++++++++++++++++++++++++++++@@+@@++++                    ",
"    *+++++++++++++++++++++++++;  *+++++++++++++++++++++++++;    h+++i+h+++h+h+++h+++++++++++++++++++++++++++++++++++++++++++++++@+@+@++++                    ",
"    *+++++++++++++++++++++++++;  *+++++++++++++++++++++++++;    h+++i+h+++h+h+++h++iig++++++++++++++++++++++++++++++++++++++++++@@+@@++++                    ",
"    *+++++++++++++++++++++++++;  *+++++++++++++++++++++++++;    giii++ghhhg+giiig+i++h+++++++++++++++++++++++++@+++++++++++++++++@+@+++++                    ",
"    *+++++++++++++++++++++++++;  *+++++++++++++++++++++++++;    h+++i+h+++i+h+++h++iih++++++++++++++++++++++++@@@++++++++++++++++++++++++                    ",
"    *+++++++++++++++++++++++++;  *+++++++++++++++++++++++++;    h+++i+h+++i+h+++h+i++h++++++++++++++@+@++++++@@@@@+++++++++++++++++++++++                    ",
"    *+++++++++++++++++++++++++;  *+++++++++++++++++++++++++;    ghhhg+giii++ghhhg++iig+++++++++++++@@+@@+++++++++++++++++++++++++++++++++                    ",
"    *+++++++++++++++++++++++++;  *+++++++++++++++++++++++++;    ghhhg+ghhhg+giiig++++++++++++++++@@@@+@@@@+++@@@@@+++++++++++++++jjj++++j++++++j+++++++++++++",
"    *+++++++++++++++++++++++++;  *+++++++++++++++++++++++++;    h+++i+h+++h+h+++h++++++++++++++++++@@+@@++++++@@@+++++++++++++++j+++j+++j++++++j+++++++++++++",
"    *+++++++++++++++++++++++++;  *+++++++++++++++++++++++++;    h+++i+h+++h+h+++h+ghhg++++++++++++++@+@++++++++@+++++++++++++++j++j++j++j++jj++jj++j+j+jjj+++",
"    *+++++++++++++++++++++++++;  *+++++++++++++++++++++++++;    giii++ghhhg+giiig+i++h+++++++++++++++++++++++++++++++++++++++++j+j+++j++j+j++j+j+j+jjj+j+++++",
"    =;;;;;;;;;;;;;;;;;;;;;;;;;;  =;;;;;;;;;;;;;;;;;;;;;;;;;;    h+++i+h+++i+h+++h+ghhg+++++++++++++++++++++++++++++++++++++++++j++j++j++j+j++j+j+j+j+j+jjj+++",
"                                                                h+++i+h+++i+h+++h+h++i++++++++++++++++++++++++++++++++++++++++++j+++j+++j+j++j+j+j+j+j+++j+++",
"                                                                ghhhg+giii++ghhhg+ghhg+++++++++++++++++++++++++++++++++++++++++++jjj++jj+++jj++j+j+j+j+jjj+++",
"                                                                +++++++++++++++++++++++++++++++++++++++++++++++++++++++++++++++++++++++++++++++++++++++++++++",
"                                                                ++++++++++++++++++++++++++++++++++++++++++++++++++++++++++++++###############################",
"+++++++++++++++++++++++++++++++++++++++++++++++++++++++++++++++++++++++++++++++++++++++++++++++++++++++++++++++++++++++++++++++++++++++++++++++++++++++++++++",
"++++++++++++++++++++++++++++++++++++++++++++++++++++++++@@@+++++@++@@@@++@@@@@+@+++@+@@@@@++@@@@+@@@@@+@@@@@+@@@@@+++++++@@++@+++++++++@+++++++++++@+++++@+++",
"+++++++++++++++++++++++++++++++++++++++++++++++++++++++@+++@++++@++++++@+++++@+@+++@+@+++++@+++++++++@+@+++@+@+++@++@@+++@@++@+@+@+@+++@++++@@@++++@++++@@@++",
"+++++++++++++++++++++++++++++++++++++++++++++++++++++++@++@@++++@++++++@+++++@+@+++@+@+++++@+++++++++@+@+++@+@+++@++@@++++++@+++@@@+++@@@++@+@+@+++@+++@@@@@+",
"+++++++++++++++++++++++++++++++++++++++++++++++++++++++@+@+@++++@++@@@@@++@@@@+@@@@@+@@@@@+@@@@@+++++@+*@@@*+@@@@@+++++++++@+++@+++@++@@@++@+@@@+@@@@@+++@+++",
"+++++++++++++++++++++++++++++++++++++++++++++++++++++++@@++@++++@++@+++++++++@+++++@+++++@+@+++@+++++@+@+++@+++++@++++++++@++++@+@+@+@@@@@+@+++@++@@@++@@@@@+",
"+++++++++++++++++++++++++++++++++++++++++++++++++++++++@+++@++++@++@+++++++++@+++++@+++++@+@+++@+++++@+@+++@+++++@++@@+++@++@@+@+++@++++++++@@@++++@++++@@@++",
"++++++++++++++++++++++++++++++++++++++++++++++++++++++++@@@+++++@++@@@@@+@@@@@+++++@+@@@@@+@@@@@+++++@+@@@@@+@@@@+++@@+++@++@@++@@@++++@+++++++++++++++++@+++",
"+++++++++++++++++++++++++++++++++++++++++++++++++++++++++++++++++++++++++++++++++++++++++++++++++++++++++++++++++++++++++++++++++++++++++++++++++++++++++++++",
"+++++++++++++++++++++++++++++++++++++++++++++++++++++++++++++++++++++++++++++++++++++++++++++++++++++++++++++++++++++++++++++++++++++++++++++++++++++++++++++",
"+++++++++++++++++++++++++++++++++++++++++++++++++++++++++++++++++++++++++++++++++++++++++++++++++++++++++++++++++++++++++++++++++++++++++++++++++++++++++++++",
"++@@@++@@@@+++@@@@+@@@@++@@@@@+@@@@@+@@@@@+@+++@+++@++++++@++@+++@+@+++++@+++@+@@@@++@@@@@+@@@@@+@@@@@+@@@@@+@@@@@+@@@@@+@+++@+@+++@+@+++@+@+++@+@+++@+@@@@@+",
"+@+++@+@+++@+@+++++@+++@+@+++++@+++++@+++++@+++@+++@++++++@++@+++@+@+++++@@+@@+@+++@+@+++@+@+++@+@+++@+@+++@+@+++++++@+++@+++@+@+++@+@+++@+@+++@+@+++@+++++@+",
"+@+++@+@+++@+@+++++@+++@+@+++++@+++++@+++++@+++@+++@++++++@++@++@++@+++++@+@+@+@+++@+@+++@+@+++@+@+++@+@+++@+@+++++++@+++@+++@+@+++@+@+++@++@+@++@+++@++++@++",
"+@@@@@+@@@@++@+++++@+++@+@@@@++@@@@++@+@@@+@@@@@+++@++++++@++@@@+++@+++++@+++@+@+++@+@+++@+@@@@@+@@++@+@@@@++@@@@@+++@+++@+++@+@+++@+@+++@+++@+++@@@@@+++@+++",
"+@+++@+@+++@+@+++++@+++@+@+++++@+++++@+++@+@+++@+++@++++++@++@++@++@+++++@+++@+@+++@+@+++@+@+++++@+@+@+@+++@+++++@+++@+++@+++@+@+++@+@+@+@++@+@++++++@++@++++",
"+@+++@+@+++@+@+++++@+++@+@+++++@+++++@+++@+@+++@+++@++++++@++@+++@+@+++++@+++@+@+++@+@+++@+@+++++@++@@+@+++@+++++@+++@+++@+++@+@+++@+@@+@@+@+++@+++++@+@+++++",
"+@+++@+@@@@+++@@@@+@@@@++@@@@@+@+++++@@@@@+@+++@+++@+++@@@+++@+++@+@@@@++@+++@+@+++@+@@@@@+@+++++@@@@@+@+++@+@@@@@+++@++++@@@@++@@@++@+++@+@+++@+@@@@@+@@@@@+",
"+++++++++++++++++++++++++++++++++++++++++++++++++++++++++++++++++++++++++++++++++++++++++++++++++++++++++++++++++++++++++++++++++++++++++++++++++++++++++++++",
"+++++++++++++++++++++++++++++++++++++++++++++++++++++++++++++++++++++++++++++++++++++++++++++++++++++++++++++++++++++++++++++++++++++++++++++++++++++++++++++"};
